<svg xmlns="http://www.w3.org/2000/svg" version="1.1" xmlns:xlink="http://www.w3.org/1999/xlink" xmlns:svgjs="http://svgjs.dev/svgjs" width="1000" height="1000" viewBox="0 0 1000 1000"><rect width="1000" height="1000" fill="#ffffff"></rect><g transform="matrix(0.7,0,0,0.7,149.57575757575756,319.97743663380476)"><svg viewBox="0 0 396 204" data-background-color="#ffffff" preserveAspectRatio="xMidYMid meet" height="515" width="1000" xmlns="http://www.w3.org/2000/svg" xmlns:xlink="http://www.w3.org/1999/xlink"><g id="tight-bounds" transform="matrix(1,0,0,1,0.2400000000000091,-0.12870200636940865)"><svg viewBox="0 0 395.52 204.25740401273882" height="204.25740401273882" width="395.52"><g><svg viewBox="0 0 395.52 204.25740401273882" height="204.25740401273882" width="395.52"><g><svg viewBox="0 0 395.52 204.25740401273882" height="204.25740401273882" width="395.52"><g id="textblocktransform"><svg viewBox="0 0 395.52 204.25740401273882" height="204.25740401273882" width="395.52" id="textblock"><g><rect width="395.52" height="144.2746585987261" fill="none" stroke-width="9.018103199999999" stroke="#ee3e38" data-fill-palette-color="none" data-stroke-palette-color="tertiary"></rect><rect width="395.52" height="59.982745414012726" y="144.2746585987261" fill="#ee3e38" data-fill-palette-color="tertiary"></rect></g><g><svg viewBox="0 0 395.52 144.2746585987261" height="144.2746585987261" width="395.52"><g transform="matrix(1,0,0,1,23.607599999999998,23.607599999999998)"><svg width="348.3048" viewBox="1.2999999523162842 -35 125.58999633789062 35" height="97.0594585987261" data-palette-color="#ee3e38"><path d="M6.9 0L1.3 0 14.2-35 20-35 32.8 0 27.2 0 24.2-8.55 9.9-8.55 6.9 0ZM17.05-28.7L11.4-12.75 22.7-12.75 17.05-28.7ZM58.9 0L37.7 0 37.7-35 43-35 43-4.2 58.9-4.2 58.9 0ZM67.95 0L62.34 0 75.25-35 81.05-35 93.84 0 88.25 0 85.25-8.55 70.95-8.55 67.95 0ZM78.09-28.7L72.45-12.75 83.75-12.75 78.09-28.7ZM104.04 0L98.74 0 98.74-35 104.04-35 121.59-8.65 121.59-35 126.89-35 126.89 0 121.59 0 104.04-26.35 104.04 0Z" opacity="1" transform="matrix(1,0,0,1,0,0)" fill="#ee3e38" class="wordmark-text-0" data-fill-palette-color="primary" id="text-0"></path></svg></g></svg></g></svg></g></svg></g></svg></g><defs></defs></svg><rect width="395.52" height="204.25740401273882" fill="none" stroke="none" visibility="hidden"></rect></g></svg></g></svg>